<?xml version="1.0" encoding="UTF-8"?>
<svg width="24" height="24" viewBox="0 0 24 24" xmlns="http://www.w3.org/2000/svg">
  <defs>
    <linearGradient id="gauge-gradient" x1="0%" y1="0%" x2="100%" y2="0%">
      <stop offset="0%" style="stop-color:#FF4B4B"/>
      <stop offset="20%" style="stop-color:#FF8F3F"/>
      <stop offset="40%" style="stop-color:#FFC93F"/>
      <stop offset="60%" style="stop-color:#FFE73F"/>
      <stop offset="80%" style="stop-color:#4CAF50"/>
      <stop offset="100%" style="stop-color:#388E3C"/>
    </linearGradient>
  </defs>
  <path d="M12 2C6.48 2 2 6.48 2 12s4.48 10 10 10 10-4.48 10-10S17.52 2 12 2zm0 18c-4.41 0-8-3.59-8-8s3.59-8 8-8 8 3.59 8 8-3.59 8-8 8z" fill="#E0E0E0"/>
  <path d="M12 4c-4.41 0-8 3.59-8 8s3.59 8 8 8 8-3.59 8-8-3.59-8-8-8zm0 14c-3.31 0-6-2.69-6-6s2.69-6 6-6 6 2.69 6 6-2.69 6-6 6z" fill="url(#gauge-gradient)"/>
  <circle cx="12" cy="12" r="2" fill="#424242"/>
  <path d="M12 12L12 6" stroke="#424242" stroke-width="2" stroke-linecap="round"/>
</svg>
